HIERARCHY
ROOT hip
{
	OFFSET 0.000000 0.000000 0.000000 
	CHANNELS 6 Xposition Yposition Zposition Xrotation Zrotation Yrotation
	JOINT abdomen
	{
		OFFSET 0.000000 3.402643 0.000000 
		CHANNELS 3 Xrotation Zrotation Yrotation
		JOINT chest
		{
			OFFSET 0.000000 8.438565 -0.680529 
			CHANNELS 3 Xrotation Zrotation Yrotation
			JOINT neck
			{
				OFFSET 0.000000 10.207942 -0.272212 
				CHANNELS 3 Xrotation Zrotation Yrotation
				JOINT head
				{
					OFFSET 0.000000 3.130431 0.000000 
					CHANNELS 3 Xrotation Zrotation Yrotation
					End Site
					{
						OFFSET 0.000000 3.130435 0.000000 
					}
				}
			}
			JOINT lCollar
			{
				OFFSET 3.470700 6.669187 -0.816635 
				CHANNELS 3 Yrotation Zrotation Xrotation
				JOINT lShldr
				{
					OFFSET 3.198488 0.000000 0.000000 
					CHANNELS 3 Zrotation Yrotation Xrotation
					JOINT lForeArm
					{
						OFFSET 10.139888 0.000000 0.000000 
						CHANNELS 3 Yrotation Zrotation Xrotation
						JOINT lHand
						{
							OFFSET 8.370511 0.000000 0.000000 
							CHANNELS 3 Zrotation Yrotation Xrotation
							End Site
							{
								OFFSET 4.083176 0.000000 0.000000 
							}
						}
					}
				}
			}
			JOINT rCollar
			{
				OFFSET -3.470700 6.669187 -0.816635 
				CHANNELS 3 Yrotation Zrotation Xrotation
				JOINT rShldr
				{
					OFFSET -3.198488 0.000000 0.000000 
					CHANNELS 3 Zrotation Yrotation Xrotation
					JOINT rForeArm
					{
						OFFSET -10.139888 0.000000 0.000000 
						CHANNELS 3 Yrotation Zrotation Xrotation
						JOINT rHand
						{
							OFFSET -8.370511 0.000000 0.000000 
							CHANNELS 3 Zrotation Yrotation Xrotation
							End Site
							{
								OFFSET -4.083176 0.000000 0.000000 
							}
						}
					}
				}
			}
		}
	}
	JOINT lThigh
	{
		OFFSET 5.308129 -1.633274 1.361059 
		CHANNELS 3 Xrotation Zrotation Yrotation
		JOINT lShin
		{
			OFFSET -2.041588 -20.007561 0.000000 
			CHANNELS 3 Xrotation Zrotation Yrotation
			JOINT lFoot
			{
				OFFSET 0.000000 -19.190928 -1.224953 
				CHANNELS 3 Xrotation Yrotation Zrotation
				End Site
				{
					OFFSET 0.000000 -2.449906 4.627600 
				}
			}
		}
	}
	JOINT rThigh
	{
		OFFSET -5.308129 -1.633274 1.361059 
		CHANNELS 3 Xrotation Zrotation Yrotation
		JOINT rShin
		{
			OFFSET 2.041588 -20.007561 0.000000 
			CHANNELS 3 Xrotation Zrotation Yrotation
			JOINT rFoot
			{
				OFFSET 0.000000 -19.190928 -1.224953 
				CHANNELS 3 Xrotation Yrotation Zrotation
				End Site
				{
					OFFSET 0.000000 -2.449906 4.627600 
				}
			}
		}
	}
}
MOTION
Frames: 18
Frame Time: 0.033333
1.804772 46.075249 -5.893441 -2.168630 -1.415002 -41.147614 0.000000 0.000000 0.000000 -2.657038 1.394984 8.138412 -12.179594 8.931742 2.994861 6.467941 -4.528115 8.527526 -3.519355 9.157742 6.311733 -67.171997 -28.238823 -35.638123 -73.827942 -4.391706 3.619111 14.030507 14.471973 -8.389435 3.090466 -14.082293 8.028685 98.395660 33.658016 28.689386 85.090317 5.078828 16.139606 21.054993 -6.294598 -7.425617 -27.527010 20.124805 8.514025 39.229801 -3.203967 -23.367647 0.047018 0.734618 -11.457254 0.467629 -12.059040 -17.783068 30.359821 3.233812 -3.295997 -16.973410 1.029537 -5.711291 
1.797153 46.329372 -5.285447 -2.265736 -0.565964 -40.954174 0.000000 0.000000 0.000000 -4.189767 0.701246 9.011134 -12.385291 8.375978 2.526443 8.123520 -4.501795 7.752406 -3.519355 9.157742 6.311733 -67.251114 -28.514011 -33.399212 -74.545433 -4.468698 4.034069 13.128574 14.286361 -8.424640 3.090466 -14.082293 8.028685 97.156845 32.916325 29.878044 85.805244 4.847757 19.524595 15.620619 -7.627295 -7.985848 -27.323566 19.979876 8.418473 36.054680 -3.773609 -21.620935 0.463219 0.667208 -11.438040 1.053174 -12.729985 -17.322201 28.968472 2.661620 -2.695537 -14.660446 0.709269 -4.551250 
1.776526 46.292889 -4.689567 -2.392642 -0.419556 -40.705128 0.000000 0.000000 0.000000 -4.971312 0.895058 9.160438 -12.773276 7.490490 2.561666 9.573188 -4.413432 7.258828 -3.519355 9.157742 6.311733 -67.102425 -28.679941 -32.352718 -75.141495 -3.885089 5.789176 11.914000 15.980720 -8.374724 3.090466 -14.082293 8.028685 96.477661 34.373211 31.900808 85.250252 3.619544 27.749268 12.824630 -6.892348 -7.952671 -26.980429 20.417995 8.272608 33.321274 -3.948841 -22.236097 0.824116 0.642508 -11.581352 1.942837 -13.289877 -17.645414 28.472712 2.603362 -2.722380 -14.830129 0.740882 -4.711779 
1.731955 45.971340 -4.066762 -2.461354 -1.053715 -39.905888 0.000000 0.000000 0.000000 -4.904823 1.819489 8.759982 -13.681922 6.911492 2.565762 10.386429 -4.529065 6.987743 -3.519355 9.157742 6.311733 -67.081451 -29.923445 -31.112160 -75.299423 -3.308182 4.281842 11.068967 16.865469 -8.368406 3.090466 -14.082293 8.028685 96.062851 36.523907 33.278049 83.470100 2.750625 28.647097 13.792580 -5.135731 -7.573424 -26.839306 21.321590 8.264588 31.748075 -3.979121 -26.473867 1.226787 0.636878 -12.370649 3.005799 -13.394618 -18.259718 29.260834 2.710210 -3.248092 -16.148409 0.925524 -5.318408 
1.676786 45.442650 -3.318433 -2.746068 -2.145972 -38.363960 0.000000 0.000000 0.000000 -4.087976 3.087842 7.709428 -14.770962 6.483120 2.541578 10.602752 -4.811535 6.804668 -3.519355 9.157742 6.311733 -66.904411 -32.131130 -30.753439 -75.106949 -2.573379 2.907256 9.641511 18.027775 -8.403710 3.090466 -14.082293 8.028685 96.325027 39.517056 33.682186 80.901474 2.118717 27.168871 18.943848 -4.659095 -7.147862 -26.861177 21.987928 8.427586 31.499996 -4.050185 -30.266314 1.550839 0.646760 -13.331459 4.080637 -13.064864 -18.334728 31.470049 2.046448 -4.443565 -17.139519 1.012493 -5.523321 
1.625921 44.820549 -2.346353 -3.453500 -3.441020 -35.964718 0.000000 0.000000 0.000000 -2.995687 4.027710 5.668822 -15.646860 6.454486 2.292162 10.582788 -4.684715 6.586074 -3.519355 9.157742 6.311733 -66.136642 -34.682423 -31.081404 -75.352364 -2.009054 2.741135 7.282887 17.565157 -8.536323 3.090466 -14.082293 8.028685 97.188950 42.174816 33.171906 78.184792 1.646885 28.512152 23.946089 -4.076044 -6.661230 -26.572031 21.933338 8.838530 31.852724 -4.328080 -30.159761 1.825374 0.642769 -13.965443 6.285659 -13.121840 -19.553392 33.463184 2.124591 -6.371715 -18.386517 1.113004 -5.878877 
1.580833 44.342865 -1.241971 -3.466357 -4.201312 -33.515961 0.000000 0.000000 0.000000 -3.530310 5.224497 3.467642 -15.366891 6.201864 2.090641 10.268608 -4.412205 6.238682 -3.519355 9.157742 6.311733 -66.032600 -37.145390 -30.523254 -75.184151 -1.023402 3.863551 5.873184 18.785572 -8.614450 3.090466 -14.082293 8.028685 98.276947 43.318172 32.690872 76.192375 1.187157 30.006237 25.953875 -4.883142 -6.754187 -26.959101 21.548708 9.155652 32.712395 -4.650210 -27.766216 1.627790 0.667955 -13.611511 8.023999 -12.702517 -19.867775 34.400143 1.968146 -8.557876 -18.418266 1.040941 -5.408773 
1.603068 44.175179 -0.084638 -3.249609 -3.870738 -32.359020 0.000000 0.000000 0.000000 -4.977919 5.934723 2.932033 -15.250257 5.363987 1.797515 10.336383 -4.060647 5.472574 -3.519355 9.157742 6.311733 -67.556679 -39.583515 -28.931797 -72.921921 0.371405 5.638321 7.473854 17.285089 -8.525935 3.090466 -14.082293 8.028685 99.132736 42.680752 32.124752 75.636215 0.967071 30.326927 23.979492 -6.418229 -7.316337 -28.299772 20.907223 9.268853 36.987049 -4.388142 -31.034637 -0.472688 0.697093 -10.243921 8.612767 -12.949093 -19.489450 34.885815 1.176407 -9.999909 -16.357887 0.576025 -3.624927 
1.760295 44.581280 1.091459 -3.636184 -2.465736 -33.388420 0.000000 0.000000 0.000000 -5.549072 5.064172 4.850642 -16.587837 4.623627 1.530674 11.196198 -3.482767 4.744434 -3.519355 9.157742 6.311733 -69.866859 -40.263653 -27.004265 -71.270111 0.446483 7.577612 9.813125 14.757837 -8.473213 3.090466 -14.082293 8.028685 99.399818 40.211182 30.333687 77.131332 2.024883 30.228853 19.578907 -7.449656 -7.789436 -26.717312 18.856073 9.520852 36.571754 -4.903335 -28.357483 -0.678458 0.687845 -9.604569 8.782394 -15.345760 -20.295979 34.578053 0.601159 -8.219760 -12.403659 0.164588 -1.757216 
1.983478 45.343140 2.040654 -2.969693 -1.443372 -36.565781 0.000000 0.000000 0.000000 -7.079801 4.215774 8.276420 -16.941654 5.943101 0.648154 12.412539 -4.189975 4.759671 -3.519355 9.157742 6.311733 -73.196289 -39.083191 -23.771379 -70.235626 -0.145135 10.459525 14.194605 13.271580 -8.457332 3.090466 -14.082293 8.028685 99.306122 36.084152 28.141903 78.774139 3.282788 31.091267 12.061586 -7.879837 -8.152720 -24.116817 17.603205 9.529753 33.043873 -5.387759 -23.291250 -0.628682 0.635787 -9.016476 6.285722 -16.889988 -19.999557 35.184929 -0.464429 -7.438840 -7.332320 -0.183207 0.655390 
2.124571 46.004322 2.610761 -1.738524 -0.956591 -39.834248 0.000000 0.000000 0.000000 -9.078172 4.272184 10.724731 -16.339386 7.549630 0.203506 13.554123 -5.010630 5.269616 -3.519355 9.157742 6.311733 -75.958153 -36.613403 -21.952618 -68.826653 -0.632018 13.557000 20.185608 13.975084 -8.305405 3.090466 -14.082293 8.028685 99.481224 32.467743 28.872156 80.356819 3.872760 33.257542 -1.525752 -9.372571 -8.713034 -22.642586 17.456942 9.129472 30.317656 -5.309263 -19.765640 -0.197036 0.625027 -9.480169 1.854088 -16.599974 -18.672230 37.728691 -1.498564 -7.131363 -3.068055 -0.297261 2.800860 
2.132191 46.289478 2.945634 -1.377072 -0.751736 -42.042477 0.000000 0.000000 0.000000 -9.240377 3.903915 11.162416 -16.651457 8.719403 0.399995 14.458755 -5.304371 6.077540 -3.519355 9.157742 6.311733 -76.545410 -33.835350 -23.917395 -68.117188 -1.758352 13.939385 27.602303 15.464619 -7.945750 3.090466 -14.082293 8.028685 100.759583 31.606213 33.238495 80.992149 3.579654 35.635479 -20.638386 -11.302521 -8.868693 -21.875263 17.285473 8.594501 29.612627 -4.983265 -16.973049 -0.327150 0.674264 -10.144064 -0.558115 -16.031740 -19.756578 38.848736 0.366753 0.310795 -6.145045 -0.013513 -0.720295 
2.017688 46.246948 3.163920 -1.670179 -1.005432 -43.300770 0.000000 0.000000 0.000000 -8.255141 3.198999 10.288258 -16.593739 9.729058 0.979760 14.505137 -6.003403 7.192408 -3.519355 9.157742 6.311733 -76.196854 -31.195724 -26.926125 -67.571823 -2.706306 14.148838 35.164875 15.275799 -7.741354 3.090466 -14.082293 8.028685 102.405312 32.842041 37.171059 80.355301 2.819832 38.313347 -30.143698 -12.418580 -8.675852 -21.204859 17.425095 8.598123 30.563725 -4.776912 -16.468084 -1.284026 0.748039 -9.670080 -2.364788 -14.582780 -20.880045 40.470810 2.427376 5.078609 -10.124225 0.493170 -4.105805 
1.909526 45.812649 3.319947 -1.592042 -1.005471 -43.917374 0.000000 0.000000 0.000000 -7.536781 2.546200 9.312008 -16.757040 10.295590 1.319571 14.439068 -6.247014 7.848687 -3.519355 9.157742 6.311733 -75.572250 -27.869335 -29.408466 -69.177116 -3.974877 14.481542 36.406361 15.585312 -7.629779 3.090466 -14.082293 8.028685 102.357460 34.235325 38.592640 81.339859 2.844127 39.243950 -31.308573 -12.623300 -8.629300 -22.606276 17.840616 8.603803 34.189247 -4.426941 -16.734610 -2.668023 0.759615 -8.321055 -4.872992 -12.998839 -21.089388 42.675476 3.232306 5.326805 -12.606253 0.809134 -5.462062 
1.873899 45.016430 3.677309 -2.256174 -0.956290 -44.122490 0.000000 0.000000 0.000000 -6.731089 1.580831 7.977583 -16.315596 10.288749 1.724002 14.260685 -6.103168 8.155629 -3.519355 9.157742 6.311733 -75.364769 -23.364653 -30.615046 -72.708611 -5.788136 12.793714 35.452305 15.589213 -7.658238 3.090466 -14.082293 8.028685 101.441048 35.494640 38.795422 82.658310 3.255378 37.924671 -31.244867 -12.213669 -8.716540 -24.372528 17.341488 8.620575 39.590786 -3.613312 -17.122551 -4.469560 0.607298 -5.265425 -6.386636 -13.383952 -22.395187 45.354729 3.133369 -5.804668 -16.759766 0.940939 -5.426572 
1.915204 43.774616 4.276139 -3.751373 -1.549409 -45.025414 0.000000 0.000000 0.000000 -5.108047 0.894870 8.035255 -14.664428 9.824602 2.139459 13.081278 -6.007133 8.231132 -3.519355 9.157742 6.311733 -75.736961 -19.342916 -29.559692 -76.845253 -7.616512 11.497409 36.784477 15.808719 -7.558061 3.090466 -14.082293 8.028685 98.991066 36.619480 36.391438 85.290710 4.045741 36.947819 -30.779188 -12.448360 -8.666330 -26.316969 16.561468 8.636955 47.531425 -2.169760 -15.489445 -6.929474 0.327765 -1.979772 -5.049509 -15.259018 -24.024023 48.279137 2.368447 -7.449447 -25.631763 2.594832 -9.706732 
1.964126 42.365204 5.044247 -5.093868 -2.772228 -46.569679 0.000000 0.000000 0.000000 -3.360953 1.754791 9.105994 -12.743196 8.273346 2.849197 11.614712 -5.353968 7.950601 -3.519355 9.157742 6.311733 -77.478706 -15.502941 -28.029877 -79.956352 -9.128700 10.940556 38.112331 15.789163 -7.518315 3.090466 -14.082293 8.028685 95.907982 37.228668 33.527878 87.760735 4.499713 37.420448 -31.287624 -12.277207 -8.704373 -28.150444 15.895657 8.394097 56.054539 -0.170469 -12.943840 -8.895969 0.147491 -0.124274 -4.014930 -16.789232 -24.029181 52.188534 0.043517 -5.210886 -32.029354 4.308398 -12.997799 
2.030226 40.978127 6.127183 -6.458180 -3.609820 -48.127010 0.000000 0.000000 0.000000 -1.847974 2.840321 9.547181 -11.901484 6.958073 3.628580 11.348198 -4.965028 7.896242 -3.519355 9.157742 6.311733 -80.445160 -10.399897 -28.383886 -83.915947 -11.038792 8.205951 40.515060 15.462873 -7.531795 3.090466 -14.082293 8.028685 93.682266 37.133396 32.273441 89.839935 5.376124 36.014038 -35.301640 -13.018723 -8.497122 -29.899153 14.402240 7.871957 64.373337 1.683847 -10.074471 -9.409150 0.286120 -1.114300 -3.682889 -19.224804 -24.757095 56.477924 -2.056028 -7.008117 -37.420723 5.941648 -15.342601 
